<svg xmlns="http://www.w3.org/2000/svg" width="640" height="360" viewBox="0 0 640 360" role="img"><title>Map grid</title><rect width="640" height="360" rx="24" fill="#0f172a"/><rect x="1" y="1" width="638" height="358" rx="23" fill="none" stroke="#334155" stroke-width="2"/><text x="32" y="42" fill="#67e8f9" font-family="Inter,Arial,sans-serif" font-size="17" font-weight="800" text-anchor="start">MAP GRID</text><path d="M32 58H608" stroke="#334155" stroke-width="2"/><text x="190" y="92" fill="#fbbf24" font-family="Inter,Arial,sans-serif" font-size="18" font-weight="900" text-anchor="middle">A</text><text x="290" y="92" fill="#fbbf24" font-family="Inter,Arial,sans-serif" font-size="18" font-weight="900" text-anchor="middle">B</text><text x="390" y="92" fill="#fbbf24" font-family="Inter,Arial,sans-serif" font-size="18" font-weight="900" text-anchor="middle">C</text><text x="490" y="92" fill="#fbbf24" font-family="Inter,Arial,sans-serif" font-size="18" font-weight="900" text-anchor="middle">D</text><text x="115" y="140" fill="#fbbf24" font-family="Inter,Arial,sans-serif" font-size="18" font-weight="900" text-anchor="middle">1</text><text x="115" y="194" fill="#fbbf24" font-family="Inter,Arial,sans-serif" font-size="18" font-weight="900" text-anchor="middle">2</text><text x="115" y="248" fill="#fbbf24" font-family="Inter,Arial,sans-serif" font-size="18" font-weight="900" text-anchor="middle">3</text><text x="115" y="302" fill="#fbbf24" font-family="Inter,Arial,sans-serif" font-size="18" font-weight="900" text-anchor="middle">4</text><path d="M140 108H540M140 108V324" stroke="#64748b" stroke-width="2"/><path d="M140 162H540M240 108V324" stroke="#64748b" stroke-width="2"/><path d="M140 216H540M340 108V324" stroke="#64748b" stroke-width="2"/><path d="M140 270H540M440 108V324" stroke="#64748b" stroke-width="2"/><path d="M140 324H540M540 108V324" stroke="#64748b" stroke-width="2"/><rect x="348" y="170" width="84" height="42" rx="5" fill="#8b5cf6"/><path d="M340 170l50-28 50 28" fill="#a78bfa"/><text x="390" y="200" fill="#f8fafc" font-family="Inter,Arial,sans-serif" font-size="21" font-weight="900" text-anchor="middle">M</text></svg>
