<svg xmlns="http://www.w3.org/2000/svg" width="640" height="360" viewBox="0 0 640 360" role="img">
  <title>Inference from visual clues</title>
  <rect width="640" height="360" rx="24" fill="#0f172a"/>
  <rect x="1" y="1" width="638" height="358" rx="23" fill="none" stroke="#334155" stroke-width="2"/>
  <text x="32" y="42" fill="#67e8f9" font-family="Inter, Arial, sans-serif" font-size="17" font-weight="800" text-anchor="start">INFERENCE FROM VISUAL CLUES</text>
  <path d="M32 58H608" stroke="#334155" stroke-width="2"/>
  <rect x="38" y="85" width="172" height="222" rx="16" fill="#1e293b" stroke="#475569" stroke-width="2"/><rect x="234" y="85" width="172" height="222" rx="16" fill="#1e293b" stroke="#475569" stroke-width="2"/><rect x="430" y="85" width="172" height="222" rx="16" fill="#1e293b" stroke="#475569" stroke-width="2"/><rect x="72" y="118" width="105" height="104" fill="#164e63" stroke="#67e8f9" stroke-width="4"/><path d="M124 118v104M72 170h105" stroke="#67e8f9" stroke-width="3"/><path d="M160 118q30 52 0 104" fill="#8b5cf6" opacity=".8"/><rect x="270" y="160" width="48" height="34" transform="rotate(-10 270 160)" fill="#f8fafc" stroke="#94a3b8"/><rect x="328" y="122" width="48" height="34" transform="rotate(12 328 122)" fill="#f8fafc" stroke="#94a3b8"/><rect x="360" y="225" width="48" height="34" transform="rotate(-10 360 225)" fill="#f8fafc" stroke="#94a3b8"/><rect x="276" y="255" width="48" height="34" transform="rotate(12 276 255)" fill="#f8fafc" stroke="#94a3b8"/><circle cx="492" cy="151" r="24" fill="#fbbf24"/><path d="M492 175v72m0-43-32 18m32-18 48-52" stroke="#e2e8f0" stroke-width="8" stroke-linecap="round"/><text x="516" y="102" fill="#fbbf24" font-family="Inter, Arial, sans-serif" font-size="28" font-weight="900" text-anchor="middle">?</text>
</svg>
