<svg xmlns="http://www.w3.org/2000/svg" width="640" height="360" viewBox="0 0 640 360" role="img">
  <title>Migration flows</title>
  <rect width="640" height="360" rx="24" fill="#0f172a"/>
  <rect x="1" y="1" width="638" height="358" rx="23" fill="none" stroke="#334155" stroke-width="2"/>
  <text x="32" y="42" fill="#67e8f9" font-family="Inter, Arial, sans-serif" font-size="17" font-weight="800" text-anchor="start">MIGRATION FLOWS</text>
  <path d="M32 58H608" stroke="#334155" stroke-width="2"/>
  <path d="M55 95L245 76L320 146L420 88L585 132L565 292L360 315L250 273L90 302Z" fill="#164e63" stroke="#67e8f9" stroke-width="3"/><rect x="124" y="128" width="36" height="28" fill="#8b5cf6"/><rect x="132" y="241" width="36" height="28" fill="#8b5cf6"/><rect x="447" y="224" width="36" height="28" fill="#8b5cf6"/><circle cx="330" cy="195" r="45" fill="#fbbf24"/><text x="330" y="201" fill="#422006" font-family="Inter, Arial, sans-serif" font-size="17" font-weight="900" text-anchor="middle">CITY</text><path d="M160 145L276 181" stroke="#f8fafc" stroke-width="5" stroke-linecap="round"/><path d="M262 171L276 181L262 191" fill="none" stroke="#f8fafc" stroke-width="5" stroke-linecap="round" stroke-linejoin="round"/><path d="M168 250L286 218" stroke="#f8fafc" stroke-width="5" stroke-linecap="round"/><path d="M272 208L286 218L272 228" fill="none" stroke="#f8fafc" stroke-width="5" stroke-linecap="round" stroke-linejoin="round"/><path d="M447 232L377 211" stroke="#f8fafc" stroke-width="5" stroke-linecap="round"/><path d="M363 201L377 211L363 221" fill="none" stroke="#f8fafc" stroke-width="5" stroke-linecap="round" stroke-linejoin="round"/><path d="M364 172L455 115" stroke="#f43f5e" stroke-width="5" stroke-linecap="round"/><path d="M441 105L455 115L441 125" fill="none" stroke="#f43f5e" stroke-width="5" stroke-linecap="round" stroke-linejoin="round"/><text x="104" y="330" fill="#cbd5e1" font-family="Inter, Arial, sans-serif" font-size="13" font-weight="700" text-anchor="start">Arrow width shows number of people</text>
</svg>
