<svg xmlns="http://www.w3.org/2000/svg" width="640" height="360" viewBox="0 0 640 360" role="img">
  <title>Hundred-square model</title>
  <rect width="640" height="360" rx="24" fill="#0f172a"/>
  <rect x="1" y="1" width="638" height="358" rx="23" fill="none" stroke="#334155" stroke-width="2"/>
  <text x="32" y="42" fill="#67e8f9" font-family="Inter, Arial, sans-serif" font-size="17" font-weight="800" text-anchor="start">HUNDRED-SQUARE MODEL</text>
  <path d="M32 58H608" stroke="#334155" stroke-width="2"/>
  <rect x="102" y="76" width="39" height="21" rx="2" fill="#155e75" stroke="#64748b"/><path d="M106 93L136 80" stroke="#67e8f9" stroke-width="2"/><rect x="145" y="76" width="39" height="21" rx="2" fill="#155e75" stroke="#64748b"/><path d="M149 93L179 80" stroke="#67e8f9" stroke-width="2"/><rect x="188" y="76" width="39" height="21" rx="2" fill="#155e75" stroke="#64748b"/><path d="M192 93L222 80" stroke="#67e8f9" stroke-width="2"/><rect x="231" y="76" width="39" height="21" rx="2" fill="#155e75" stroke="#64748b"/><path d="M235 93L265 80" stroke="#67e8f9" stroke-width="2"/><rect x="274" y="76" width="39" height="21" rx="2" fill="#1e293b" stroke="#64748b"/><rect x="317" y="76" width="39" height="21" rx="2" fill="#1e293b" stroke="#64748b"/><rect x="360" y="76" width="39" height="21" rx="2" fill="#1e293b" stroke="#64748b"/><rect x="403" y="76" width="39" height="21" rx="2" fill="#1e293b" stroke="#64748b"/><rect x="446" y="76" width="39" height="21" rx="2" fill="#1e293b" stroke="#64748b"/><rect x="489" y="76" width="39" height="21" rx="2" fill="#1e293b" stroke="#64748b"/><rect x="102" y="101" width="39" height="21" rx="2" fill="#155e75" stroke="#64748b"/><path d="M106 118L136 105" stroke="#67e8f9" stroke-width="2"/><rect x="145" y="101" width="39" height="21" rx="2" fill="#155e75" stroke="#64748b"/><path d="M149 118L179 105" stroke="#67e8f9" stroke-width="2"/><rect x="188" y="101" width="39" height="21" rx="2" fill="#155e75" stroke="#64748b"/><path d="M192 118L222 105" stroke="#67e8f9" stroke-width="2"/><rect x="231" y="101" width="39" height="21" rx="2" fill="#155e75" stroke="#64748b"/><path d="M235 118L265 105" stroke="#67e8f9" stroke-width="2"/><rect x="274" y="101" width="39" height="21" rx="2" fill="#1e293b" stroke="#64748b"/><rect x="317" y="101" width="39" height="21" rx="2" fill="#1e293b" stroke="#64748b"/><rect x="360" y="101" width="39" height="21" rx="2" fill="#1e293b" stroke="#64748b"/><rect x="403" y="101" width="39" height="21" rx="2" fill="#1e293b" stroke="#64748b"/><rect x="446" y="101" width="39" height="21" rx="2" fill="#1e293b" stroke="#64748b"/><rect x="489" y="101" width="39" height="21" rx="2" fill="#1e293b" stroke="#64748b"/><rect x="102" y="126" width="39" height="21" rx="2" fill="#155e75" stroke="#64748b"/><path d="M106 143L136 130" stroke="#67e8f9" stroke-width="2"/><rect x="145" y="126" width="39" height="21" rx="2" fill="#155e75" stroke="#64748b"/><path d="M149 143L179 130" stroke="#67e8f9" stroke-width="2"/><rect x="188" y="126" width="39" height="21" rx="2" fill="#155e75" stroke="#64748b"/><path d="M192 143L222 130" stroke="#67e8f9" stroke-width="2"/><rect x="231" y="126" width="39" height="21" rx="2" fill="#155e75" stroke="#64748b"/><path d="M235 143L265 130" stroke="#67e8f9" stroke-width="2"/><rect x="274" y="126" width="39" height="21" rx="2" fill="#1e293b" stroke="#64748b"/><rect x="317" y="126" width="39" height="21" rx="2" fill="#1e293b" stroke="#64748b"/><rect x="360" y="126" width="39" height="21" rx="2" fill="#1e293b" stroke="#64748b"/><rect x="403" y="126" width="39" height="21" rx="2" fill="#1e293b" stroke="#64748b"/><rect x="446" y="126" width="39" height="21" rx="2" fill="#1e293b" stroke="#64748b"/><rect x="489" y="126" width="39" height="21" rx="2" fill="#1e293b" stroke="#64748b"/><rect x="102" y="151" width="39" height="21" rx="2" fill="#155e75" stroke="#64748b"/><path d="M106 168L136 155" stroke="#67e8f9" stroke-width="2"/><rect x="145" y="151" width="39" height="21" rx="2" fill="#155e75" stroke="#64748b"/><path d="M149 168L179 155" stroke="#67e8f9" stroke-width="2"/><rect x="188" y="151" width="39" height="21" rx="2" fill="#155e75" stroke="#64748b"/><path d="M192 168L222 155" stroke="#67e8f9" stroke-width="2"/><rect x="231" y="151" width="39" height="21" rx="2" fill="#155e75" stroke="#64748b"/><path d="M235 168L265 155" stroke="#67e8f9" stroke-width="2"/><rect x="274" y="151" width="39" height="21" rx="2" fill="#1e293b" stroke="#64748b"/><rect x="317" y="151" width="39" height="21" rx="2" fill="#1e293b" stroke="#64748b"/><rect x="360" y="151" width="39" height="21" rx="2" fill="#1e293b" stroke="#64748b"/><rect x="403" y="151" width="39" height="21" rx="2" fill="#1e293b" stroke="#64748b"/><rect x="446" y="151" width="39" height="21" rx="2" fill="#1e293b" stroke="#64748b"/><rect x="489" y="151" width="39" height="21" rx="2" fill="#1e293b" stroke="#64748b"/><rect x="102" y="176" width="39" height="21" rx="2" fill="#155e75" stroke="#64748b"/><path d="M106 193L136 180" stroke="#67e8f9" stroke-width="2"/><rect x="145" y="176" width="39" height="21" rx="2" fill="#155e75" stroke="#64748b"/><path d="M149 193L179 180" stroke="#67e8f9" stroke-width="2"/><rect x="188" y="176" width="39" height="21" rx="2" fill="#155e75" stroke="#64748b"/><path d="M192 193L222 180" stroke="#67e8f9" stroke-width="2"/><rect x="231" y="176" width="39" height="21" rx="2" fill="#155e75" stroke="#64748b"/><path d="M235 193L265 180" stroke="#67e8f9" stroke-width="2"/><rect x="274" y="176" width="39" height="21" rx="2" fill="#1e293b" stroke="#64748b"/><rect x="317" y="176" width="39" height="21" rx="2" fill="#1e293b" stroke="#64748b"/><rect x="360" y="176" width="39" height="21" rx="2" fill="#1e293b" stroke="#64748b"/><rect x="403" y="176" width="39" height="21" rx="2" fill="#1e293b" stroke="#64748b"/><rect x="446" y="176" width="39" height="21" rx="2" fill="#1e293b" stroke="#64748b"/><rect x="489" y="176" width="39" height="21" rx="2" fill="#1e293b" stroke="#64748b"/><rect x="102" y="201" width="39" height="21" rx="2" fill="#155e75" stroke="#64748b"/><path d="M106 218L136 205" stroke="#67e8f9" stroke-width="2"/><rect x="145" y="201" width="39" height="21" rx="2" fill="#155e75" stroke="#64748b"/><path d="M149 218L179 205" stroke="#67e8f9" stroke-width="2"/><rect x="188" y="201" width="39" height="21" rx="2" fill="#155e75" stroke="#64748b"/><path d="M192 218L222 205" stroke="#67e8f9" stroke-width="2"/><rect x="231" y="201" width="39" height="21" rx="2" fill="#155e75" stroke="#64748b"/><path d="M235 218L265 205" stroke="#67e8f9" stroke-width="2"/><rect x="274" y="201" width="39" height="21" rx="2" fill="#1e293b" stroke="#64748b"/><rect x="317" y="201" width="39" height="21" rx="2" fill="#1e293b" stroke="#64748b"/><rect x="360" y="201" width="39" height="21" rx="2" fill="#1e293b" stroke="#64748b"/><rect x="403" y="201" width="39" height="21" rx="2" fill="#1e293b" stroke="#64748b"/><rect x="446" y="201" width="39" height="21" rx="2" fill="#1e293b" stroke="#64748b"/><rect x="489" y="201" width="39" height="21" rx="2" fill="#1e293b" stroke="#64748b"/><rect x="102" y="226" width="39" height="21" rx="2" fill="#155e75" stroke="#64748b"/><path d="M106 243L136 230" stroke="#67e8f9" stroke-width="2"/><rect x="145" y="226" width="39" height="21" rx="2" fill="#155e75" stroke="#64748b"/><path d="M149 243L179 230" stroke="#67e8f9" stroke-width="2"/><rect x="188" y="226" width="39" height="21" rx="2" fill="#155e75" stroke="#64748b"/><path d="M192 243L222 230" stroke="#67e8f9" stroke-width="2"/><rect x="231" y="226" width="39" height="21" rx="2" fill="#155e75" stroke="#64748b"/><path d="M235 243L265 230" stroke="#67e8f9" stroke-width="2"/><rect x="274" y="226" width="39" height="21" rx="2" fill="#1e293b" stroke="#64748b"/><rect x="317" y="226" width="39" height="21" rx="2" fill="#1e293b" stroke="#64748b"/><rect x="360" y="226" width="39" height="21" rx="2" fill="#1e293b" stroke="#64748b"/><rect x="403" y="226" width="39" height="21" rx="2" fill="#1e293b" stroke="#64748b"/><rect x="446" y="226" width="39" height="21" rx="2" fill="#1e293b" stroke="#64748b"/><rect x="489" y="226" width="39" height="21" rx="2" fill="#1e293b" stroke="#64748b"/><rect x="102" y="251" width="39" height="21" rx="2" fill="#155e75" stroke="#64748b"/><path d="M106 268L136 255" stroke="#67e8f9" stroke-width="2"/><rect x="145" y="251" width="39" height="21" rx="2" fill="#155e75" stroke="#64748b"/><path d="M149 268L179 255" stroke="#67e8f9" stroke-width="2"/><rect x="188" y="251" width="39" height="21" rx="2" fill="#155e75" stroke="#64748b"/><path d="M192 268L222 255" stroke="#67e8f9" stroke-width="2"/><rect x="231" y="251" width="39" height="21" rx="2" fill="#155e75" stroke="#64748b"/><path d="M235 268L265 255" stroke="#67e8f9" stroke-width="2"/><rect x="274" y="251" width="39" height="21" rx="2" fill="#1e293b" stroke="#64748b"/><rect x="317" y="251" width="39" height="21" rx="2" fill="#1e293b" stroke="#64748b"/><rect x="360" y="251" width="39" height="21" rx="2" fill="#1e293b" stroke="#64748b"/><rect x="403" y="251" width="39" height="21" rx="2" fill="#1e293b" stroke="#64748b"/><rect x="446" y="251" width="39" height="21" rx="2" fill="#1e293b" stroke="#64748b"/><rect x="489" y="251" width="39" height="21" rx="2" fill="#1e293b" stroke="#64748b"/><rect x="102" y="276" width="39" height="21" rx="2" fill="#155e75" stroke="#64748b"/><path d="M106 293L136 280" stroke="#67e8f9" stroke-width="2"/><rect x="145" y="276" width="39" height="21" rx="2" fill="#155e75" stroke="#64748b"/><path d="M149 293L179 280" stroke="#67e8f9" stroke-width="2"/><rect x="188" y="276" width="39" height="21" rx="2" fill="#155e75" stroke="#64748b"/><path d="M192 293L222 280" stroke="#67e8f9" stroke-width="2"/><rect x="231" y="276" width="39" height="21" rx="2" fill="#155e75" stroke="#64748b"/><path d="M235 293L265 280" stroke="#67e8f9" stroke-width="2"/><rect x="274" y="276" width="39" height="21" rx="2" fill="#1e293b" stroke="#64748b"/><rect x="317" y="276" width="39" height="21" rx="2" fill="#1e293b" stroke="#64748b"/><rect x="360" y="276" width="39" height="21" rx="2" fill="#1e293b" stroke="#64748b"/><rect x="403" y="276" width="39" height="21" rx="2" fill="#1e293b" stroke="#64748b"/><rect x="446" y="276" width="39" height="21" rx="2" fill="#1e293b" stroke="#64748b"/><rect x="489" y="276" width="39" height="21" rx="2" fill="#1e293b" stroke="#64748b"/><rect x="102" y="301" width="39" height="21" rx="2" fill="#155e75" stroke="#64748b"/><path d="M106 318L136 305" stroke="#67e8f9" stroke-width="2"/><rect x="145" y="301" width="39" height="21" rx="2" fill="#155e75" stroke="#64748b"/><path d="M149 318L179 305" stroke="#67e8f9" stroke-width="2"/><rect x="188" y="301" width="39" height="21" rx="2" fill="#155e75" stroke="#64748b"/><path d="M192 318L222 305" stroke="#67e8f9" stroke-width="2"/><rect x="231" y="301" width="39" height="21" rx="2" fill="#155e75" stroke="#64748b"/><path d="M235 318L265 305" stroke="#67e8f9" stroke-width="2"/><rect x="274" y="301" width="39" height="21" rx="2" fill="#1e293b" stroke="#64748b"/><rect x="317" y="301" width="39" height="21" rx="2" fill="#1e293b" stroke="#64748b"/><rect x="360" y="301" width="39" height="21" rx="2" fill="#1e293b" stroke="#64748b"/><rect x="403" y="301" width="39" height="21" rx="2" fill="#1e293b" stroke="#64748b"/><rect x="446" y="301" width="39" height="21" rx="2" fill="#1e293b" stroke="#64748b"/><rect x="489" y="301" width="39" height="21" rx="2" fill="#1e293b" stroke="#64748b"/><text x="320" y="342" fill="#94a3b8" font-family="Inter, Arial, sans-serif" font-size="16" font-weight="700" text-anchor="middle">100 equal cells</text>
</svg>
