<svg xmlns="http://www.w3.org/2000/svg" width="640" height="360" viewBox="0 0 640 360" role="img">
  <title>Four-figure grid reference</title>
  <rect width="640" height="360" rx="24" fill="#0f172a"/>
  <rect x="1" y="1" width="638" height="358" rx="23" fill="none" stroke="#334155" stroke-width="2"/>
  <text x="32" y="42" fill="#67e8f9" font-family="Inter, Arial, sans-serif" font-size="17" font-weight="800" text-anchor="start">FOUR-FIGURE GRID REFERENCE</text>
  <path d="M32 58H608" stroke="#334155" stroke-width="2"/>
  <text x="170" y="90" fill="#fbbf24" font-family="Inter, Arial, sans-serif" font-size="18" font-weight="800" text-anchor="middle">A</text><text x="270" y="90" fill="#fbbf24" font-family="Inter, Arial, sans-serif" font-size="18" font-weight="800" text-anchor="middle">B</text><text x="370" y="90" fill="#fbbf24" font-family="Inter, Arial, sans-serif" font-size="18" font-weight="800" text-anchor="middle">C</text><text x="470" y="90" fill="#fbbf24" font-family="Inter, Arial, sans-serif" font-size="18" font-weight="800" text-anchor="middle">D</text><text x="105" y="135" fill="#fbbf24" font-family="Inter, Arial, sans-serif" font-size="18" font-weight="800" text-anchor="middle">1</text><text x="105" y="190" fill="#fbbf24" font-family="Inter, Arial, sans-serif" font-size="18" font-weight="800" text-anchor="middle">2</text><text x="105" y="245" fill="#fbbf24" font-family="Inter, Arial, sans-serif" font-size="18" font-weight="800" text-anchor="middle">3</text><text x="105" y="300" fill="#fbbf24" font-family="Inter, Arial, sans-serif" font-size="18" font-weight="800" text-anchor="middle">4</text><path d="M120 105H520M120 105V325" stroke="#64748b" stroke-width="2"/><path d="M120 160H520M220 105V325" stroke="#64748b" stroke-width="2"/><path d="M120 215H520M320 105V325" stroke="#64748b" stroke-width="2"/><path d="M120 270H520M420 105V325" stroke="#64748b" stroke-width="2"/><path d="M120 325H520M520 105V325" stroke="#64748b" stroke-width="2"/><rect x="335" y="178" width="70" height="36" rx="5" fill="#8b5cf6"/><path d="M328 178l42-24 42 24" fill="#a78bfa"/><text x="370" y="202" fill="#f8fafc" font-family="Inter, Arial, sans-serif" font-size="18" font-weight="900" text-anchor="middle">M</text>
</svg>
