<svg xmlns="http://www.w3.org/2000/svg" width="640" height="360" viewBox="0 0 640 360" role="img">
  <title>Books read by each group</title>
  <rect width="640" height="360" rx="24" fill="#0f172a"/>
  <rect x="1" y="1" width="638" height="358" rx="23" fill="none" stroke="#334155" stroke-width="2"/>
  <text x="32" y="42" fill="#67e8f9" font-family="Inter, Arial, sans-serif" font-size="17" font-weight="800" text-anchor="start">BOOKS READ BY EACH GROUP</text>
  <path d="M32 58H608" stroke="#334155" stroke-width="2"/>
  <path d="M86 294H590" stroke="#334155"/><text x="70" y="300" fill="#94a3b8" font-family="Inter, Arial, sans-serif" font-size="14" font-weight="600" text-anchor="end">0</text><path d="M86 252H590" stroke="#334155"/><text x="70" y="258" fill="#94a3b8" font-family="Inter, Arial, sans-serif" font-size="14" font-weight="600" text-anchor="end">2</text><path d="M86 210H590" stroke="#334155"/><text x="70" y="216" fill="#94a3b8" font-family="Inter, Arial, sans-serif" font-size="14" font-weight="600" text-anchor="end">4</text><path d="M86 168H590" stroke="#334155"/><text x="70" y="174" fill="#94a3b8" font-family="Inter, Arial, sans-serif" font-size="14" font-weight="600" text-anchor="end">6</text><path d="M86 126H590" stroke="#334155"/><text x="70" y="132" fill="#94a3b8" font-family="Inter, Arial, sans-serif" font-size="14" font-weight="600" text-anchor="end">8</text><path d="M86 84H590" stroke="#334155"/><text x="70" y="90" fill="#94a3b8" font-family="Inter, Arial, sans-serif" font-size="14" font-weight="600" text-anchor="end">10</text><rect x="112" y="168" width="64" height="126" rx="8" fill="#0891b2"/><text x="144" y="320" fill="#cbd5e1" font-family="Inter, Arial, sans-serif" font-size="15" font-weight="700" text-anchor="middle">Orion</text><text x="144" y="154" fill="#f8fafc" font-family="Inter, Arial, sans-serif" font-size="18" font-weight="800" text-anchor="middle">6</text><rect x="230" y="105" width="64" height="189" rx="8" fill="#8b5cf6"/><text x="262" y="320" fill="#cbd5e1" font-family="Inter, Arial, sans-serif" font-size="15" font-weight="700" text-anchor="middle">Nova</text><text x="262" y="91" fill="#f8fafc" font-family="Inter, Arial, sans-serif" font-size="18" font-weight="800" text-anchor="middle">9</text><rect x="348" y="210" width="64" height="84" rx="8" fill="#0891b2"/><text x="380" y="320" fill="#cbd5e1" font-family="Inter, Arial, sans-serif" font-size="15" font-weight="700" text-anchor="middle">Pulse</text><text x="380" y="196" fill="#f8fafc" font-family="Inter, Arial, sans-serif" font-size="18" font-weight="800" text-anchor="middle">4</text><rect x="466" y="147" width="64" height="147" rx="8" fill="#8b5cf6"/><text x="498" y="320" fill="#cbd5e1" font-family="Inter, Arial, sans-serif" font-size="15" font-weight="700" text-anchor="middle">Zenith</text><text x="498" y="133" fill="#f8fafc" font-family="Inter, Arial, sans-serif" font-size="18" font-weight="800" text-anchor="middle">7</text>
</svg>
