<svg xmlns="http://www.w3.org/2000/svg" width="640" height="360" viewBox="0 0 640 360" role="img"><title>Chance bag</title><defs><pattern id="hatch" width="12" height="12" patternUnits="userSpaceOnUse" patternTransform="rotate(35)"><path d="M0 0V12" stroke="#67e8f9" stroke-width="4"/></pattern><pattern id="dots" width="16" height="16" patternUnits="userSpaceOnUse"><circle cx="4" cy="4" r="2.5" fill="#c4b5fd"/></pattern></defs><rect width="640" height="360" rx="24" fill="#0f172a"/><rect x="1" y="1" width="638" height="358" rx="23" fill="none" stroke="#334155" stroke-width="2"/><text x="32" y="42" fill="#67e8f9" font-family="Inter,Arial,sans-serif" font-size="17" font-weight="800" text-anchor="start">CHANCE BAG</text><path d="M32 58H608" stroke="#334155" stroke-width="2"/><path d="M178 104Q320 76 462 104L510 294Q320 330 130 294Z" fill="#1e293b" stroke="#64748b" stroke-width="5"/><path d="M188 106Q320 140 452 106" fill="none" stroke="#fbbf24" stroke-width="8"/><rect x="202" y="154" width="40" height="40" rx="6" fill="#be123c" stroke="#fff" stroke-width="2"/><rect x="206" y="158" width="32" height="32" rx="4" fill="url(#hatch)"/><rect x="282" y="138" width="40" height="40" rx="6" fill="#be123c" stroke="#fff" stroke-width="2"/><rect x="286" y="142" width="32" height="32" rx="4" fill="url(#hatch)"/><rect x="378" y="164" width="40" height="40" rx="6" fill="#be123c" stroke="#fff" stroke-width="2"/><rect x="382" y="168" width="32" height="32" rx="4" fill="url(#hatch)"/><rect x="184" y="226" width="40" height="40" rx="6" fill="#1d4ed8" stroke="#fff" stroke-width="2"/><rect x="188" y="230" width="32" height="32" rx="4" fill="url(#dots)"/><rect x="256" y="206" width="40" height="40" rx="6" fill="#1d4ed8" stroke="#fff" stroke-width="2"/><rect x="260" y="210" width="32" height="32" rx="4" fill="url(#dots)"/><rect x="330" y="230" width="40" height="40" rx="6" fill="#1d4ed8" stroke="#fff" stroke-width="2"/><rect x="334" y="234" width="32" height="32" rx="4" fill="url(#dots)"/><rect x="400" y="210" width="40" height="40" rx="6" fill="#1d4ed8" stroke="#fff" stroke-width="2"/><rect x="404" y="214" width="32" height="32" rx="4" fill="url(#dots)"/><rect x="306" y="272" width="40" height="40" rx="6" fill="#1d4ed8" stroke="#fff" stroke-width="2"/><rect x="310" y="276" width="32" height="32" rx="4" fill="url(#dots)"/></svg>
